<svg width="219" height="127" viewBox="0 0 219 127" fill="none" xmlns="http://www.w3.org/2000/svg">
<path d="M99.4872 86.051C99.6166 86.051 99.6166 86.051 99.746 86.0971C101.73 86.3738 103.671 86.7427 105.137 87.4805C106.517 88.1262 107.337 88.9562 108.07 90.4319C109.191 92.6454 109.278 95.7352 108.243 98.087C107.466 99.8394 105.827 101.315 104.318 102.099C102.765 102.929 101.212 103.298 99.4441 103.529C96.3387 103.898 92.9746 103.206 90.2143 101.776C88.5753 100.9 86.5482 99.4244 85.5131 97.5337C84.7799 96.1502 84.7799 94.3056 85.6856 92.9683C87.152 90.847 90.2574 90.3858 92.5864 90.478C94.3547 90.5703 97.5895 91.1236 99.2715 91.7693C99.746 91.9537 101.471 92.6916 101.773 93.0144C101.989 93.2449 102.118 93.5677 102.032 93.8906C101.644 95.1357 98.754 95.8274 97.9345 95.9657C95.6917 96.3347 94.5704 95.4124 92.0257 94.3517C91.3788 94.075 90.5593 93.7983 89.9123 93.7522C88.7478 93.6139 87.3677 93.9828 87.152 95.3201C87.0227 96.0119 87.799 96.6575 88.3597 96.9342C89.6967 97.5798 90.8181 97.7642 92.1551 97.8103C96.0799 97.8565 100.522 97.1647 103.757 94.7206C104.188 94.3978 104.62 93.8906 104.62 93.2911C104.62 92.046 102.593 91.262 102.593 91.262C100.436 90.2936 96.3818 89.8324 94.3547 89.648C92.1982 89.4635 88.7478 89.1407 87.9284 89.0023C87.0658 88.864 86.1601 88.6795 85.4268 88.3567C84.6936 87.9878 83.9604 87.2039 83.7448 86.3277C83.3566 84.7598 83.831 82.8229 84.6505 81.5317C86.807 78.2114 91.8532 76.9663 95.6486 76.459C99.3147 75.9517 105.223 75.9979 108.803 78.0269C109.364 78.3497 109.623 78.6264 109.536 79.272C109.321 80.471 108.458 81.2089 107.466 81.5778C106.388 81.9467 104.188 82.0851 103.239 82.1312C98.9265 82.4079 93.7078 82.2695 89.5673 83.4685C89.2654 83.5608 88.7047 83.7452 88.4891 83.9297C87.8421 84.6675 89.6967 84.8981 90.0849 84.9903C90.2143 85.0364 90.2143 85.0364 90.3437 85.0364L99.4872 86.051ZM73.7387 65.4375C73.7387 65.4375 74.4287 64.3307 75.0325 63.4545C76.1108 61.8866 78.0516 59.7192 79.5181 58.3818C79.9493 57.9668 80.51 57.5057 80.51 57.5057C80.51 57.5057 79.6906 57.5979 79.2161 57.6901C78.0948 57.9207 76.499 59.0736 75.6795 59.8114C74.3425 61.0565 72.8761 63.0395 73.523 64.7919C73.6093 65.1147 73.7387 65.4375 73.7387 65.4375ZM81.2001 67.5588C83.3135 67.4204 85.2975 66.7287 87.152 65.6681C88.9635 64.6074 91.6375 62.4861 91.3356 59.9959C91.2494 59.2119 90.7749 58.5663 90.128 58.2896C89.3085 57.9207 88.9204 57.9668 87.8852 58.2896C87.152 58.5202 86.807 58.6585 86.0738 59.1197C84.0036 60.4109 81.0276 63.1778 79.4318 65.3914C79.0436 65.8986 78.6986 66.4981 78.3967 66.9132C78.2242 67.1437 78.0516 67.3743 78.0948 67.4665C78.181 67.651 80.3807 67.651 81.2001 67.5588ZM75.8089 71.8014C75.5932 72.032 75.3776 72.6315 75.1188 73.0926C74.9894 73.3232 74.7738 73.5999 74.6012 73.7382C74.0406 74.1532 73.5661 74.1994 73.0486 73.6921C72.3154 73.0004 71.8841 71.8936 71.8409 70.833C71.8409 70.3718 71.8841 69.8645 71.7978 69.4495C71.6684 68.8039 71.0646 68.1122 70.7196 67.4665C70.3314 66.7287 70.0295 65.4375 69.9864 64.6074C69.857 61.9788 71.1509 59.5808 72.7898 57.6901C74.4719 55.7533 76.6715 54.1854 79.0868 53.0786C81.3295 52.0641 84.6505 51.3723 87.152 52.2946C87.9715 52.5713 89.0929 53.3092 89.6536 54.0931C89.783 54.2315 89.8692 54.4159 89.9986 54.5082C90.128 54.6004 90.3868 54.6004 90.6456 54.6465C91.4219 54.7849 92.5864 55.4305 93.0608 55.8455C94.0097 56.7217 94.5272 57.5518 94.7429 58.7508C95.2173 61.1488 93.9234 63.8234 92.457 65.4375C89.9123 68.2044 87.4108 70.1412 84.1761 71.5247C82.7528 72.1242 80.5532 72.6776 78.9142 72.5392C78.3967 72.4931 77.8791 72.3548 77.4047 72.3086C77.1459 72.2625 76.2402 72.0319 76.1539 71.9858C75.9814 71.8475 75.852 71.8014 75.8089 71.8014ZM78.6986 77.1507C78.7848 77.1507 78.9574 77.1969 79.0868 77.2891C80.2081 77.7502 80.6826 78.857 80.9845 80.1021C81.6314 82.9613 81.8902 89.3252 82.0196 91.8154C82.1058 93.66 82.149 95.5046 82.2352 97.3492C82.2784 98.9171 82.4078 100.992 82.1058 102.422C81.9765 102.929 81.6745 103.575 81.2001 103.851C80.6394 104.22 79.4318 104.266 78.7417 104.082C77.0597 103.713 76.5421 102.56 76.2833 100.808C75.7226 96.6114 75.9814 88.3567 76.3264 84.8981C76.4558 83.7452 76.844 80.056 77.4047 78.5342C77.5772 78.073 78.0085 77.0124 78.6986 77.1507ZM28.1073 84.1603C28.1073 84.1603 25.6489 84.3447 23.9237 84.5292C21.7672 84.7598 17.6698 85.5437 15.3408 86.4199C14.6508 86.6966 13.1843 87.3422 13.0981 88.1262C12.9687 88.9101 13.4431 89.5557 13.9607 90.2013C14.2626 90.5703 15.9446 92.3226 16.4191 92.7377C18.4031 94.5362 22.4573 97.257 25.4332 98.5943C26.4683 99.0555 28.1504 99.7011 28.1504 99.7011C28.1504 99.7011 28.021 94.5362 28.0641 89.4635C28.0641 86.7888 28.1073 84.1603 28.1073 84.1603ZM73.4799 86.1893C73.6093 87.5728 73.3074 90.2013 73.2211 90.5242C73.1348 91.3081 72.5742 93.1527 72.4448 93.3833C71.9703 94.4901 71.539 95.4124 71.0646 96.3347C70.2451 97.9026 68.3043 100.393 67.1829 101.453C62.9131 105.373 56.3142 107.633 50.6642 108.371C46.8256 108.878 42.4264 108.786 38.329 108.002C36.9489 107.725 34.8355 107.218 34.8355 107.218C34.8355 107.218 34.8355 108.094 34.7924 108.74C34.7493 109.016 34.5767 109.8 34.4474 110.031C34.1455 110.676 33.671 110.999 32.9809 111.184C32.1183 111.368 31.2126 111.414 30.4363 111.045C29.1424 110.446 28.668 109.155 28.4523 107.679C28.2798 106.48 28.0641 104.405 28.0641 104.405C28.0641 104.405 27.1153 103.898 26.2958 103.483C23.8374 102.191 21.4653 100.577 19.395 98.9632C18.8344 98.5021 16.3759 96.3347 15.8153 95.7813C14.3057 94.2595 12.9256 92.6916 11.8904 90.7547C11.071 89.2329 10.8553 87.8495 11.4591 86.2354C12.3217 83.9758 15.3408 82.2695 17.4111 81.3011C18.9206 80.5633 23.708 78.9031 25.6489 78.6264C26.5977 78.4881 28.021 78.2114 28.1073 78.1653C28.1504 78.1192 28.1504 78.1192 28.1935 78.073C28.2367 78.0269 28.3229 75.7673 28.2798 74.9372C28.2798 74.1071 28.8405 68.85 29.013 67.6971C29.0993 67.0976 29.5306 64.7457 29.9619 64.1462C30.2638 63.7312 30.7382 63.7773 31.1695 64.054C33.4122 65.5758 34.1023 70.7868 34.2748 73.4154C34.3611 75.0294 34.4474 77.4735 34.4474 77.4735C34.4474 77.4735 37.0351 77.3813 38.631 77.4274C40.1836 77.4735 41.9088 77.7502 43.5046 77.9808C45.5749 78.3497 49.5859 79.272 51.8718 80.5171C53.7695 81.5317 55.5379 83.2841 56.1417 85.1287C56.6592 86.7888 56.6161 87.9878 55.7966 89.5096C54.8909 91.2159 53.1657 92.5071 51.3974 92.5993C50.8798 92.6455 48.8959 92.3688 48.292 91.8615C48.0764 91.677 48.0764 91.3081 48.2489 91.0775C48.292 90.9853 49.2409 90.478 49.7585 90.1552C50.0172 90.0169 50.276 89.8324 50.4485 89.6018C50.8798 89.1868 51.3111 88.7257 51.268 88.1723C51.2249 87.4805 50.4917 87.0194 49.8447 86.7427C46.6962 85.4054 40.3993 84.2986 37.3802 84.1141C36.1726 84.0219 34.4905 83.9758 34.4905 83.9758L34.8355 101.915C34.8355 101.915 36.2157 102.191 37.3371 102.376C37.984 102.468 40.6581 102.745 41.3481 102.745C46.7825 102.883 52.8207 102.376 57.7806 99.8855C59.9802 98.7788 61.9642 97.4414 63.4737 95.5507C65.4577 93.1066 66.536 89.7402 66.2341 86.2354C65.9322 82.4079 63.4306 77.8886 61.4035 75.1217C56.0985 67.8355 46.9981 61.7944 38.976 58.2896C30.7813 54.6926 22.716 52.6174 14.0469 52.2946C11.8042 52.2024 6.93051 52.3408 4.47211 53.0786C4.12707 53.1708 3.78203 53.3092 3.43699 53.4014C3.17821 53.4475 2.79004 53.632 2.66065 53.7703C2.61752 53.8164 2.53126 53.9087 2.53126 53.9087C2.53126 53.9087 2.70378 54.0009 2.83317 54.047C3.09195 54.1854 4.21333 54.2315 4.77402 54.3698C5.29158 54.4621 5.80913 54.7387 6.02478 55.1538C6.24043 55.5227 6.24043 55.8455 6.02478 56.1683C5.4641 56.9062 3.35073 56.7678 2.44501 56.6295C1.49615 56.445 0.288512 56.1683 0.0728631 55.246C-0.185916 54.1854 0.288512 53.1708 0.806071 52.2024C1.84119 50.2656 3.26447 49.2972 5.42097 48.6515C8.44005 47.7754 12.2786 47.1297 15.1252 47.0375C21.5947 46.7608 27.7191 48.0059 34.0161 50.035C37.5958 51.1879 42.297 53.1247 45.7474 54.9232C48.2058 56.2144 52.1306 58.5202 54.2871 60.0881C54.9772 60.5954 59.0314 63.7312 59.6352 64.2846C60.9291 65.4375 62.6543 67.0515 63.905 68.3889C66.3203 70.9252 69.2963 74.7989 70.7196 77.9347C71.0646 78.6725 71.3234 79.4104 71.7978 80.2405C71.9703 80.5172 72.6173 82.2695 72.7035 82.7768C72.8329 83.2841 72.9623 84.0219 73.0054 84.068C73.2211 84.1141 73.523 85.5898 73.4799 86.1893ZM154.952 82.2234C151.933 82.9613 143.954 83.3763 143.954 83.3763L142.962 86.7427C142.962 86.7427 146.93 86.3738 149.863 86.6966C149.863 86.6966 150.812 86.5582 150.898 87.8495C150.941 89.0023 150.812 90.2936 150.812 90.2936C150.812 90.2936 150.769 91.0775 149.733 91.262C148.655 91.4465 141.151 91.7693 141.151 91.7693L139.943 96.1502C139.943 96.1502 139.512 97.1647 140.504 96.888C141.453 96.6114 149.302 95.0434 150.337 95.274C151.416 95.5507 152.666 97.1186 152.278 98.5482C151.847 100.301 143.997 105.65 139.253 105.281C139.253 105.281 136.751 105.465 134.638 101.822C132.654 98.3637 135.371 91.8154 135.371 91.8154C135.371 91.8154 134.12 88.7718 135.026 87.7111C135.026 87.7111 135.544 87.2039 137.14 87.0655L139.08 82.8229C139.08 82.8229 136.881 82.9613 135.587 81.255C134.379 79.641 134.293 78.857 135.199 78.442C136.191 77.9347 145.334 76.1362 151.588 76.3668C151.588 76.3668 153.788 76.1362 155.642 80.1943C155.599 80.1943 156.505 81.8545 154.952 82.2234ZM131.36 98.5943C130.541 100.623 128.427 102.791 125.796 101.453C123.209 100.116 119.025 91.0314 119.025 91.0314C119.025 91.0314 117.429 87.665 117.127 87.7111C117.127 87.7111 116.782 87.0655 116.567 90.7547C116.351 94.4439 116.61 101.638 115.23 102.745C113.936 103.898 112.34 103.436 111.52 102.099C110.787 100.808 110.485 97.672 110.873 92.2304C111.348 86.7888 112.556 80.9783 114.065 79.1798C115.575 77.3813 116.782 78.6725 117.257 79.1798C117.257 79.1798 119.284 81.1628 122.605 86.881L123.209 87.9417C123.209 87.9417 126.228 93.3833 126.573 93.3833C126.573 93.3833 126.832 93.6139 127.047 93.4294C127.349 93.3372 127.22 91.5848 127.22 91.5848C127.22 91.5848 126.573 85.6359 123.812 75.6289C123.812 75.6289 123.381 74.3838 123.683 73.1848C123.985 71.9858 125.063 72.5392 125.063 72.5392C125.063 72.5392 129.333 74.845 131.446 82.3156C133.56 89.7863 132.136 96.5652 131.36 98.5943ZM177.466 94.1211C175.525 97.7642 170.005 105.373 162.672 103.575C160.257 109.846 158.23 116.21 157.066 125.664C157.066 125.664 156.807 127.509 155.383 126.863C153.96 126.31 151.631 123.819 151.157 120.315C150.639 115.703 152.58 107.956 156.462 99.0555C155.34 97.0725 154.564 94.2595 155.211 90.2013C155.211 90.2013 156.203 82.7307 163.233 75.9979C163.233 75.9979 164.096 75.2139 164.57 75.4445C165.088 75.6751 164.872 78.1192 164.441 79.3182C164.009 80.5172 160.861 86.2815 160.861 86.2815C160.861 86.2815 158.92 90.2013 159.438 93.2911C163.104 87.25 171.514 75.0294 176.69 78.857C178.415 80.1943 179.234 83.0996 179.234 86.2354C179.234 89.0023 178.63 91.9076 177.466 94.1211ZM175.956 84.5292C175.956 84.5292 175.655 82.1312 173.455 84.7598C171.557 87.0194 168.15 91.2159 165.39 96.888C168.279 96.5191 171.04 94.859 171.902 94.0289C173.282 92.7377 176.474 89.1868 175.956 84.5292ZM217.835 83.9758H204.422C204.163 79.0876 203.603 74.3377 202.74 69.4495C202.654 68.9422 202.222 68.5733 201.748 68.5733H198.643C198.384 68.5733 198.125 68.7117 197.953 68.9422C197.78 69.1728 197.694 69.4495 197.78 69.7723C198.643 74.5222 199.203 79.1798 199.505 84.0219H186.609C186.006 84.0219 185.531 84.5292 185.531 85.1748V88.1723C185.531 88.8179 186.006 89.3252 186.609 89.3252H199.721C199.721 90.063 199.721 90.7086 199.721 91.3542C199.721 95.6429 199.548 99.1938 199.16 103.206C199.117 103.529 199.203 103.805 199.419 104.036C199.592 104.266 199.893 104.405 200.152 104.405H203.042C203.603 104.405 204.077 103.944 204.12 103.344C204.508 99.3322 204.681 95.7352 204.681 91.3542C204.681 90.7547 204.681 90.063 204.681 89.3252H217.922C218.526 89.3252 219 88.8179 219 88.1723V85.1748C218.914 84.4831 218.439 83.9758 217.835 83.9758Z" fill="white"/>
<path d="M200.885 61.5638C194.071 43.5789 182.469 28.2225 167.46 17.2471C152.062 5.94886 134.034 0 115.273 0C84.2623 0 55.5378 16.4631 38.3722 44.04C38.1996 44.3167 38.1565 44.7318 38.2428 45.0546C38.3722 45.4235 38.5878 45.6541 38.9329 45.7924L41.3481 46.6686C41.4775 46.7147 41.65 46.7608 41.7794 46.7608C42.2107 46.7608 42.642 46.5302 42.9008 46.1152C50.7936 33.7563 61.4466 23.4265 73.7386 16.3248C86.4188 8.99247 100.824 5.07267 115.316 5.07267C132.87 5.07267 149.777 10.6065 164.225 21.0746C178.329 31.2661 189.327 45.5157 195.926 62.2555C196.141 62.7628 196.572 63.0856 197.09 63.0856H199.98C200.325 63.0856 200.627 62.9011 200.799 62.6245C201.015 62.2555 201.015 61.8866 200.885 61.5638Z" fill="url(#paint0_radial_1_7)"/>
<defs>
<radialGradient id="paint0_radial_1_7" cx="0" cy="0" r="1" gradientUnits="userSpaceOnUse" gradientTransform="translate(198.092 62.9552) scale(155.287 166.036)">
<stop stop-color="#01147B"/>
<stop offset="0.0254902" stop-color="#011098"/>
<stop offset="0.0643085" stop-color="#010ABD"/>
<stop offset="0.1032" stop-color="#0006DA"/>
<stop offset="0.1416" stop-color="#0003EE"/>
<stop offset="0.1794" stop-color="#0001FB"/>
<stop offset="0.2159" stop-color="#0000FF"/>
<stop offset="1" stop-color="#00FFFF" stop-opacity="0"/>
</radialGradient>
</defs>
</svg>
